<mxfile host="app.diagrams.net" modified="2024-06-23T13:15:25.020Z" agent="Mozilla/5.0 (Windows NT 10.0; Win64; x64) AppleWebKit/537.36 (KHTML, like Gecko) Chrome/126.0.0.0 Safari/537.36" etag="jxrJ_YVYxjg0c8XlQwfn" version="24.6.2" type="github">
  <diagram name="Seite-1" id="62-I2j5H8c_jlzZDV0tS">
    <mxGraphModel dx="2048" dy="1871" grid="1" gridSize="10" guides="1" tooltips="1" connect="1" arrows="1" fold="1" page="1" pageScale="1" pageWidth="827" pageHeight="1169" math="0" shadow="0">
      <root>
        <mxCell id="0" />
        <mxCell id="1" parent="0" />
        <mxCell id="WhK4WuoLG0qcPCvB2M2P-3" value="&lt;u&gt;Frontend-Container&lt;/u&gt;" style="verticalAlign=top;align=left;shape=cube;size=10;direction=south;fontStyle=0;html=1;boundedLbl=1;spacingLeft=5;whiteSpace=wrap;" vertex="1" parent="1">
          <mxGeometry x="-770" y="-100" width="350" height="300" as="geometry" />
        </mxCell>
        <mxCell id="WhK4WuoLG0qcPCvB2M2P-4" value="Node1" style="verticalAlign=top;align=center;shape=cube;size=10;direction=south;html=1;boundedLbl=1;spacingLeft=5;whiteSpace=wrap;" vertex="1" parent="WhK4WuoLG0qcPCvB2M2P-3">
          <mxGeometry width="100" height="80" relative="1" as="geometry">
            <mxPoint x="110" y="130" as="offset" />
          </mxGeometry>
        </mxCell>
      </root>
    </mxGraphModel>
  </diagram>
</mxfile>
